<?xml version="1.0" standalone="no"?>
<!DOCTYPE svg PUBLIC "-//W3C//DTD SVG 20010904//EN"
 "http://www.w3.org/TR/2001/REC-SVG-20010904/DTD/svg10.dtd">
<svg version="1.0" xmlns="http://www.w3.org/2000/svg"
 width="700.000000pt" height="700.000000pt" viewBox="0 0 700.000000 700.000000"
 preserveAspectRatio="xMidYMid meet">
<metadata>
Created by potrace 1.14, written by Peter Selinger 2001-2017
</metadata>
<g transform="translate(0.000000,700.000000) scale(0.100000,-0.100000)"
fill="#000000" stroke="none">
<path d="M2475 5900 c-17 -7 -93 -84 -248 -254 -16 -17 -52 -56 -81 -86 -58
-60 -84 -98 -81 -117 2 -7 3 -19 4 -27 1 -13 44 -57 141 -146 19 -18 88 -82
154 -144 123 -116 135 -124 176 -125 26 -1 62 34 277 265 151 162 153 165 153
202 0 38 1 37 -210 232 -80 74 -152 142 -160 150 -52 54 -85 67 -125 50z"/>
<path d="M4505 5900 c-11 -4 -59 -50 -106 -101 -89 -97 -118 -128 -222 -238
-70 -75 -86 -102 -79 -136 4 -22 84 -102 337 -337 126 -117 131 -117 235 -10
144 150 305 325 321 349 26 39 9 79 -60 143 -32 30 -107 100 -166 155 -172
160 -179 166 -203 176 -27 11 -30 10 -57 -1z"/>
<path d="M1375 4806 c-83 -87 -236 -252 -292 -315 -20 -21 -33 -47 -33 -63 0
-27 38 -79 90 -124 14 -12 41 -37 61 -55 188 -177 263 -246 282 -255 39 -21
70 -6 142 69 160 167 301 321 318 348 25 39 11 81 -47 134 -24 22 -95 88 -157
146 -225 210 -211 199 -248 199 -31 0 -45 -10 -116 -84z"/>
<path d="M3436 4837 c-70 -72 -290 -307 -321 -343 -29 -34 -39 -64 -30 -93 3
-11 72 -82 153 -158 289 -272 278 -263 322 -257 23 4 111 89 257 249 25 28 69
75 98 105 64 68 79 94 70 128 -7 27 -20 41 -232 239 -231 216 -233 217 -317
130z"/>
<path d="M5462 4833 c-48 -50 -180 -190 -311 -332 -17 -18 -34 -44 -37 -56
-12 -48 -14 -46 280 -320 70 -66 138 -125 149 -131 39 -22 70 -6 147 75 173
180 296 315 313 342 27 42 15 79 -42 131 -53 47 -273 253 -329 307 -23 22 -48
35 -74 38 -37 5 -42 3 -96 -54z"/>
<path d="M386 3817 c-113 -114 -321 -339 -338 -366 -35 -53 -26 -66 162 -241
15 -14 51 -48 81 -76 160 -150 178 -164 211 -164 35 0 57 20 282 263 156 167
156 168 156 205 0 36 1 35 -216 238 -196 184 -209 194 -244 199 -29 3 -40 -3
-94 -58z"/>
<path d="M2475 3870 c-17 -6 -108 -100 -234 -239 -13 -14 -52 -56 -87 -92 -74
-77 -93 -109 -86 -144 4 -22 57 -80 147 -161 17 -14 59 -54 95 -89 223 -213
219 -212 335 -92 180 187 301 321 317 349 23 41 10 71 -55 131 -29 27 -106 99
-171 160 -169 159 -178 167 -204 178 -27 11 -30 11 -57 -1z"/>
<path d="M4505 3870 c-11 -4 -38 -27 -60 -51 -21 -24 -94 -102 -161 -174 -157
-166 -183 -197 -185 -212 -1 -7 -2 -19 -3 -25 -4 -22 13 -47 57 -87 23 -22 62
-58 87 -81 25 -24 70 -66 100 -94 31 -28 85 -79 122 -113 54 -51 73 -63 99
-63 35 0 63 26 243 220 38 41 98 105 133 142 54 57 63 71 63 103 0 41 12 28
-218 243 -182 172 -194 182 -220 193 -27 11 -30 11 -57 -1z"/>
<path d="M6535 3870 c-11 -4 -40 -30 -64 -56 -24 -27 -93 -101 -153 -165 -157
-168 -188 -203 -189 -214 0 -5 -2 -19 -4 -30 -3 -15 20 -43 83 -105 184 -178
334 -315 356 -324 44 -17 73 3 187 126 63 67 144 153 181 192 l68 71 0 69 0
69 -62 59 c-73 68 -234 218 -287 266 -33 31 -72 53 -89 51 -4 0 -16 -4 -27 -9z"/>
<path d="M1401 2802 c-31 -31 -105 -111 -166 -176 -60 -65 -125 -134 -143
-153 -37 -39 -49 -81 -33 -112 7 -12 31 -39 54 -60 23 -22 60 -56 83 -78 167
-158 269 -250 290 -261 13 -7 35 -10 48 -6 15 3 74 59 138 127 62 67 143 153
180 192 86 91 103 114 106 146 4 31 -5 40 -197 219 -74 69 -144 134 -155 145
-100 96 -127 98 -205 17z"/>
<path d="M3426 2797 c-34 -34 -108 -114 -166 -177 -58 -63 -117 -125 -131
-139 -37 -37 -52 -69 -45 -101 5 -25 30 -52 157 -171 20 -19 85 -79 144 -134
116 -109 123 -114 162 -121 29 -5 59 23 308 290 177 190 178 171 -20 356 -44
41 -111 104 -150 140 -158 149 -169 151 -259 57z"/>
<path d="M5461 2802 c-31 -32 -103 -109 -161 -171 -58 -63 -122 -132 -143
-154 -52 -57 -60 -103 -23 -139 7 -7 66 -62 131 -123 65 -60 149 -139 187
-175 120 -112 133 -112 233 -7 185 192 311 331 323 354 20 36 6 77 -39 117
-35 30 -256 236 -326 303 -76 73 -108 72 -182 -5z"/>
<path d="M2421 1792 c-75 -76 -308 -325 -331 -354 -49 -63 -33 -89 156 -264
18 -16 54 -49 80 -74 212 -199 203 -196 313 -82 96 98 300 318 317 340 8 9 14
31 14 49 0 37 -6 43 -199 223 -137 127 -153 142 -197 183 -17 15 -45 29 -63
32 -29 3 -40 -3 -90 -53z"/>
<path d="M4505 1839 c-21 -12 -46 -37 -224 -228 -58 -63 -121 -130 -139 -150
-42 -43 -54 -74 -43 -103 9 -24 106 -118 373 -365 84 -78 101 -75 203 30 114
118 296 314 311 335 12 17 18 44 15 70 -1 14 -67 79 -221 222 -56 52 -123 114
-149 138 -41 39 -79 63 -99 62 -4 0 -16 -5 -27 -11z"/>
</g>
</svg>
